<?xml version="1.0" encoding="UTF-8"?>
<svg width="187px" height="61px" viewBox="0 0 187 61" version="1.1" xmlns="http://www.w3.org/2000/svg" xmlns:xlink="http://www.w3.org/1999/xlink">
    <title>logo/beanz-white</title>
    <g id="logo/beanz-white" stroke="none" stroke-width="1" fill="none" fill-rule="evenodd">
        <g fill="#FFFFFF">
            <path d="M13.0524964,37.7008075 C13.0248536,34.9928159 13.506044,33.6492845 13.9235024,32.8134059 C14.7143952,31.228682 15.7387167,30.5395607 15.978544,30.3843808 C16.6107464,29.9760126 17.2222167,29.7710628 17.6575917,29.661569 C17.9158476,29.6674393 18.0448476,29.7228243 18.1218893,29.7912259 C18.1218893,29.7912259 18.1725679,29.8374226 18.2084012,29.8994435 C18.6030798,30.5824393 18.2552405,32.7495983 18.2552405,32.7495983 C18.1413417,33.4604142 18.3665798,34.2955272 18.8168,35.9657531 C19.7942821,39.5902762 21.7881512,42.6282803 23.4938179,44.1372008 C26.2084488,46.5384059 26.7781988,49.3798828 26.6064548,52.6731172 C26.583675,53.1085397 26.4039964,53.3415649 26.0817524,53.5143556 C23.9204905,53.8364561 21.6885857,53.146569 19.3778476,51.3762929 C17.2388536,49.7374603 15.731294,47.9536569 14.7236095,46.0437699 C13.1036869,42.972841 13.0793714,40.3278912 13.0524964,37.7008075 M26.95455,46.2798577 C26.0822643,44.1594059 24.8385917,42.0820879 22.9560619,40.4169665 C21.106806,38.7811967 20.1454488,36.5469121 19.8052881,34.4029791 C19.5908,33.0507699 19.2688119,31.2340418 19.8511036,29.9132259 C19.9785679,29.6240502 20.1835857,29.4298201 20.4369786,29.3019498 C21.0376988,29.2942929 21.9112643,29.3394686 22.9435202,29.5939331 C22.9435202,29.5939331 24.1521274,29.8920418 25.3284845,30.5017866 C27.862669,31.8154561 33.0073119,38.0144854 32.8381274,44.9452594 C32.7662048,47.8992929 31.7633833,49.5664561 31.5353298,49.930159 C30.8122643,51.0850753 29.9407464,51.8193724 29.3505202,52.241523 C28.996794,52.3461674 28.7219012,52.2994603 28.583431,52.0235565 C27.70705,50.2777824 27.7080738,48.1121548 26.95455,46.2798577 M26.2890738,21.6585732 C24.2112524,21.6585732 20.2821274,22.4508075 18.4758714,23.3512594 C18.4758714,23.3512594 19.6947167,11.359272 20.1047524,7.23092469 L20.3955143,4.2038954 C20.7175024,0.8141841 18.05355,0.0359874477 14.4282405,0.0359874477 L11.6076452,0.0359874477 C9.69747262,0.0359874477 7.43818095,0.30551046 6.16660952,0.509949791 C5.0949369,0.682230126 4.24235952,1.53571967 4.14740119,2.53749791 L3.96874643,4.41854393 C3.93803214,4.74370711 4.08648452,5.05151464 4.37238333,5.21409623 C5.96159167,6.11914226 6.92832381,7.81208368 6.7440381,9.75106695 L2.65852619,52.7392218 L2.64240119,52.7382008 C2.63446667,52.8201297 2.63011548,52.9385565 2.62576429,53.0817406 L2.41306786,55.320364 C2.17784762,56.4078996 1.66338333,57.4346904 0.505966667,57.5541381 C0.243359524,57.5814477 0.0265678571,57.8055397 0.00174047619,58.0666402 C-0.0131047619,58.2233515 0.0690559524,58.3499456 0.158127381,58.4704142 C1.579175,60.3894895 4.08853214,61 6.9058,61 C10.6611333,61 12.5692583,60.6008201 13.6153357,59.4117029 C15.505544,60.3228745 18.7507643,60.7353264 22.0512702,60.7353264 C30.2002821,60.7353264 36.0349726,56.1092803 39.2817286,50.9275983 L39.4097048,50.6889582 C41.3610857,47.5595816 42.3365202,43.813569 42.3365202,43.813569 C44.5750798,32.3404644 39.4381155,21.6585732 26.2890738,21.6585732" id="Fill-1"></path>
            <path d="M99.9714862,48.7006942 C97.2906287,50.705624 93.0133628,49.7969884 92.2140141,46.2064205 C91.9177236,44.876448 91.6738243,43.898527 91.8465121,41.8938529 C92.0621811,39.3883298 92.4080654,35.3774477 95.4462517,32.8082639 C97.1077679,31.4033813 100.024132,30.9567335 100.024132,30.9567335 C100.023877,30.9569892 102.664043,30.6143973 103.263236,31.6866588 C103.417867,31.9627777 103.393706,32.2557705 103.378955,32.4104482 C102.230416,44.6049311 102.058491,47.1398556 99.9714862,48.7006942 M61.3578311,42.4269157 C60.7830528,42.9315996 58.2878539,44.6389346 57.4605292,40.9218122 C57.2252771,39.8669359 57.0831084,38.7808683 57.1856021,37.6960791 C57.3221755,36.2472221 57.6349973,32.5983624 60.2573596,30.4819625 C60.7286269,30.101532 61.6841322,29.3307002 62.6533711,29.5147794 C63.7039946,29.7141986 64.1602566,30.9206847 64.4039016,31.5644507 C65.5600706,34.6214444 64.0742942,37.9031683 63.1673653,39.9068197 C62.913293,40.4680057 62.405657,41.5077978 61.3578311,42.4269157 M115.524071,57.5485142 C113.287013,57.3107452 113.108476,55.2416433 113.345763,52.724104 L114.965061,35.5334037 L115.164198,33.4195604 L115.590958,28.8909553 L115.98491,24.7092885 C116.070619,23.7998859 115.803067,23.2785837 114.876809,23.0929705 C114.721161,23.0617793 114.211745,22.9791993 114.048722,22.9638594 C112.195697,22.657572 109.410566,22.657572 107.008959,22.8339812 C106.112458,22.8996873 105.253088,23.0418374 104.467727,23.4120412 L104.467727,23.4122969 C102.842834,22.5103086 100.944794,22 98.8801704,22 C87.8098392,22.254643 78.9966572,32.3002563 79.1398431,43.7845001 C76.8331002,46.9808316 73.8167859,49.3805091 69.8388625,50.6250893 C67.4339495,51.3775132 64.9562991,51.261441 62.5801251,49.6875635 C62.1742197,49.4188589 61.7545807,49.2092131 61.3138326,48.426365 C61.9435454,48.0103971 62.2070278,47.8897229 62.6396375,47.6532322 C65.5773648,46.0484191 68.6135166,44.6049311 71.4642642,42.8646152 C73.8755354,41.3927483 75.824695,39.3343844 77.0988716,36.6821093 C79.1367912,32.4416394 78.0190255,28.3566142 74.0276227,25.335158 C70.8976244,22.965649 67.4629428,21.9209993 63.8245454,22.0048576 C52.5062457,22.2648696 43.4616264,32.4807562 44.02496,44.2958313 C44.4011091,52.1872062 50.0430919,59.695594 58.4948758,60.4740958 C66.030575,61.1684836 72.2198688,58.5895846 77.4577265,53.7107176 C78.4033131,52.8294383 79.2896415,51.8809188 80.2031829,50.9635906 C80.5579686,50.6713648 80.4247014,50.6051474 80.5579686,50.6713648 L80.6396074,50.9104121 C82.8881095,56.1011911 87.5244847,60.1729217 93.6275617,60.7351304 C96.4673733,60.9966763 99.9264703,60.4838111 102.120292,59.4910615 C102.523146,60.6198252 103.903631,61 107.550167,61 C110.349795,61 113.586864,60.0555712 115.696758,58.4663537 C115.827991,58.3681782 115.913953,58.2188694 115.92845,58.0618907 C115.95312,57.8003448 115.780178,57.5756147 115.524071,57.5485142" id="Fill-4"></path>
            <path d="M154.593397,57.5461675 C152.356969,57.3082369 152.178482,55.2379841 152.415702,52.7187331 L154.034544,35.5166007 L154.216082,33.588083 C154.859093,26.7561466 149.847471,20.9892697 143.056572,21 C138.56719,21.0074343 134.41317,23.4292105 131.924013,27.0444776 L131.958591,26.669417 C132.254036,23.5292437 129.964977,22.8080323 126.843996,22.8080323 L124.416114,22.8080323 C122.771592,22.8080323 121.22445,23.0080988 120.128356,23.1979316 C119.204902,23.3573196 118.466291,24.1478635 118.379081,25.0757931 L118.215341,26.8185714 C118.187119,27.1196944 118.313484,27.4049554 118.558331,27.555389 C119.921901,28.3940307 120.744416,29.9623265 120.575337,31.7583193 L120.221668,35.5166007 L118.00736,59.0438516 C117.922185,59.9543842 118.586045,60.692481 119.490685,60.692481 L128.381477,60.692481 C129.28637,60.692481 130.089054,59.9543842 130.174992,59.0438516 L132.276156,36.7182786 C132.531682,33.9987053 134.959056,31.707919 137.656448,31.7593427 C140.270699,31.8092314 142.176087,33.9613528 141.927171,36.6087793 L141.756311,38.4224251 L140.320787,53.6750609 L140.320279,53.6750609 C140.319516,53.6812011 140.319516,53.6863179 140.319007,53.692458 C139.771088,59.514852 139.638112,61 146.621483,61 C148.946137,61 151.570558,60.3463302 153.602565,59.2144965 C153.9692,59.0218494 154.350583,58.7777786 154.76629,58.464887 C154.896723,58.3661329 154.982661,58.2169786 154.997662,58.060149 C155.022325,57.7981694 154.849432,57.5732865 154.593397,57.5461675" id="Fill-6"></path>
            <path d="M184.68427,48.1017963 C184.424239,48.1017963 184.184584,48.267338 184.136704,48.4888267 C183.774546,50.1575282 182.161645,50.6211983 180.111455,50.7164869 L170.683128,50.7164869 L183.53922,34.688063 C184.758637,33.0944685 185.511732,31.2188399 185.703507,29.2979939 L186.034084,25.9810283 C186.184856,24.4694382 185.110607,23.2365612 183.623774,23.1770377 L183.624283,23.1714174 C179.578151,23.0623336 177.546298,23 171.471369,23 C165.397204,23 164.457937,23.0623336 160.374111,23.1714174 C159.576702,23.1714174 158.86945,23.8195337 158.79381,24.6191411 L158.337419,29.453317 C158.191741,30.9978622 159.321511,32.2496437 160.861063,32.2496437 L170.589405,32.2496437 L160.144388,45.8695377 C157.068594,49.5229516 156.559485,53.6814209 156.356248,55.512343 L156.017521,58.157945 C155.857326,59.6000484 156.812638,60.799204 158.185629,60.9754753 L158.183337,61 L158.535562,61 L162.435762,61 L177.333129,61 L177.333384,60.9994891 C182.803953,60.9925915 186.41356,60.7894963 186.957816,55.0251701 C187.183464,52.6324791 186.496587,49.9421707 185.071641,48.2668271 C184.983521,48.1631081 184.840645,48.1017963 184.68427,48.1017963" id="Fill-8"></path>
        </g>
    </g>
</svg>