<?xml version="1.0" encoding="UTF-8"?>
<svg width="288px" height="67px" viewBox="0 0 288 67" version="1.1" xmlns="http://www.w3.org/2000/svg" xmlns:xlink="http://www.w3.org/1999/xlink">
    <title>Breville-logo-white</title>
    <g id="Symbols" stroke="none" stroke-width="1" fill="none" fill-rule="evenodd">
        <g id="Breville-logo_w" transform="translate(0.000000, -1.000000)" fill="#FFFFFF">
            <g id="Breville-logo-white" transform="translate(0.000000, 1.000000)">
                <polygon id="Fill-1" points="218.773 64.4702 236.301 64.4702 236.301 7.7122 218.773 7.7122"></polygon>
                <path d="M255.2288,40.3802 C260.5298,35.7802 265.3918,40.3802 265.3918,40.3802 L254.2708,49.6592 C254.2708,49.6592 250.5158,44.4352 255.2288,40.3802 M259.8508,55.1342 L280.0338,38.1122 C276.6108,31.6162 269.9848,27.3142 260.8538,27.3142 C249.0638,27.3142 239.5708,36.3102 239.5708,47.0252 C239.5708,57.7902 248.9758,66.5182 260.7488,66.5182 C268.9118,66.5182 274.8908,63.6972 279.9948,57.6102 L273.7208,50.3722 C268.1698,56.1702 262.9718,57.4732 259.8508,55.1342" id="Fill-2"></path>
                <polygon id="Fill-4" points="195.758 64.4702 213.344 64.4702 213.344 7.7122 195.758 7.7122"></polygon>
                <path d="M181.5305,25.8362 C186.0415,25.8362 189.5975,22.3072 189.5975,17.8962 C189.5975,13.4852 186.0415,9.9192 181.5305,9.9192 C177.2205,9.9192 173.6795,13.4852 173.6795,17.8962 C173.6795,22.3072 177.2205,25.8362 181.5305,25.8362" id="Fill-6"></path>
                <polygon id="Fill-7" points="172.907 64.4702 190.393 64.4702 190.393 29.5082 172.907 29.5082"></polygon>
                <polygon id="Fill-8" points="150.2405 44.7478 144.8065 29.3818 126.9235 29.3818 140.6205 64.4698 156.1615 64.4698 170.1925 29.5048 155.7635 29.5048"></polygon>
                <path d="M100.9094,49.6575 C100.9094,49.6575 97.1534,44.4285 101.9444,40.3795 C107.1734,35.7805 112.0144,40.3795 112.0144,40.3795 L100.9094,49.6575 Z M107.4104,27.3135 C95.7284,27.3135 86.1294,36.3095 86.1294,47.0245 C86.1294,57.7855 95.6314,66.5145 107.3744,66.5145 C115.6234,66.5145 121.5524,63.6975 126.6404,57.6025 L120.4664,50.3725 C114.7794,56.1665 109.6224,57.4725 106.5274,55.1345 L126.7874,38.1115 C123.2844,31.6165 116.6824,27.3135 107.4104,27.3135 L107.4104,27.3135 Z" id="Fill-9"></path>
                <path d="M76.6702,45.7786 C81.1842,45.7786 84.7392,42.2496 84.7392,37.8376 C84.7392,33.4286 81.1842,29.8626 76.6702,29.8626 C73.4002,29.8626 70.5722,31.9166 69.4002,34.8346 L69.3852,34.8566 C69.3852,34.8566 69.3592,34.9506 69.2292,34.7216 C69.0682,34.4336 69.0192,34.2796 69.0192,34.0466 L69.0192,29.4286 L51.5122,29.4286 L51.5122,64.4696 L69.0192,64.4696 L69.0192,41.3446 C69.0192,41.3446 69.0192,41.1096 69.0682,40.9936 C69.1362,40.7996 69.2962,40.5646 69.2962,40.5646 C70.3982,43.6176 73.2982,45.7786 76.6702,45.7786" id="Fill-10"></path>
                <path d="M27.7581,47.304 C26.4461,49.671 23.5091,50.174 20.5311,50.174 L18.3961,50.174 L18.3961,37.268 L22.3971,37.268 C24.7261,37.268 26.7501,37.894 27.8651,39.713 C28.7811,41.206 29.0001,45.06 27.7581,47.304 L27.7581,47.304 Z M18.3961,12.969 L22.9421,12.969 C25.6621,12.969 28.0411,15.033 28.0411,18.321 C28.0411,22.54 25.1011,23.873 20.7731,23.873 L18.3961,23.873 L18.3961,12.969 Z M38.8911,30.536 C38.8911,30.536 46.1951,26.599 46.1951,16.239 C46.1951,3.796 37.0611,-1.42108547e-14 28.2701,-1.42108547e-14 L0.0001,-1.42108547e-14 L0.0001,64.47 L27.9421,64.47 C41.3381,64.47 48.0121,57.091 48.0121,45.944 C48.0121,32.518 38.8911,30.536 38.8911,30.536 L38.8911,30.536 Z" id="Fill-11"></path>
                <path d="M283.4397,28.4573 L283.9107,28.4573 C284.4447,28.4573 284.8947,28.2613 284.8947,27.7593 C284.8947,27.4043 284.6387,27.0483 283.9107,27.0483 C283.7007,27.0483 283.5547,27.0653 283.4397,27.0823 L283.4397,28.4573 Z M283.4397,30.7013 L282.7967,30.7013 L282.7967,26.6463 C283.1337,26.5973 283.4607,26.5483 283.9397,26.5483 C284.5557,26.5483 284.9607,26.6793 285.2017,26.8533 C285.4437,27.0313 285.5737,27.3073 285.5737,27.6973 C285.5737,28.2303 285.2207,28.5533 284.7797,28.6803 L284.7797,28.7133 C285.1427,28.7783 285.3817,29.0993 285.4607,29.6983 C285.5607,30.3293 285.6517,30.5713 285.7247,30.7013 L285.0407,30.7013 C284.9447,30.5713 284.8457,30.2013 284.7657,29.6653 C284.6687,29.1493 284.4137,28.9573 283.8927,28.9573 L283.4397,28.9573 L283.4397,30.7013 Z M284.1197,25.5133 C282.5227,25.5133 281.2107,26.8873 281.2107,28.5833 C281.2107,30.3153 282.5227,31.6703 284.1367,31.6703 C285.7527,31.6863 287.0437,30.3153 287.0437,28.6003 C287.0437,26.8873 285.7527,25.5133 284.1367,25.5133 L284.1197,25.5133 Z M284.1367,24.9493 C286.1247,24.9493 287.7087,26.5633 287.7087,28.5833 C287.7087,30.6343 286.1247,32.2343 284.1197,32.2343 C282.1287,32.2343 280.5137,30.6343 280.5137,28.5833 C280.5137,26.5633 282.1287,24.9493 284.1197,24.9493 L284.1367,24.9493 Z" id="Fill-12"></path>
            </g>
        </g>
    </g>
</svg>